<?xml version="1.0" standalone="no"?>
<!DOCTYPE svg PUBLIC "-//W3C//DTD SVG 20010904//EN"
 "http://www.w3.org/TR/2001/REC-SVG-20010904/DTD/svg10.dtd">
<svg version="1.0" xmlns="http://www.w3.org/2000/svg"
 width="700.000000pt" height="700.000000pt" viewBox="0 0 700.000000 700.000000"
 preserveAspectRatio="xMidYMid meet">
<metadata>
Created by potrace 1.11, written by Peter Selinger 2001-2013
</metadata>
<g transform="translate(0.000000,700.000000) scale(0.100000,-0.100000)"
fill="#000000" stroke="none">
<path d="M5689 6974 c-195 -29 -242 -62 -636 -455 -177 -177 -323 -325 -323
-328 0 -3 319 -325 709 -715 l710 -710 379 380 c351 353 382 386 416 455 73
149 71 305 -7 454 -26 48 -103 131 -402 430 -257 256 -388 380 -428 404 -131
77 -272 106 -418 85z"/>
<path d="M2552 4018 l-1803 -1802 712 -712 711 -712 1799 1799 c990 990 1799
1802 1799 1807 0 4 -319 326 -708 715 l-708 708 -1802 -1803z"/>
<path d="M352 1778 c-6 -29 -27 -125 -48 -213 -20 -88 -37 -167 -39 -175 -2
-8 -17 -80 -34 -159 -17 -79 -33 -146 -35 -150 -2 -3 -7 -22 -10 -41 -3 -19
-38 -177 -76 -350 -39 -173 -73 -326 -76 -339 -3 -12 -11 -51 -18 -85 -17 -74
-17 -91 -4 -136 20 -66 78 -110 146 -110 21 0 86 12 143 26 57 14 111 27 119
29 8 2 62 15 120 29 58 15 114 28 125 30 19 4 74 18 583 141 122 30 232 57
245 60 106 23 287 71 287 75 0 3 -319 324 -708 713 l-709 709 -11 -54z"/>
</g>
</svg>
